<svg xmlns="http://www.w3.org/2000/svg" width="3206.424" height="3165.159" viewBox="0 0 3206.424 3165.159">
  <path id="Bg_Shape" data-name="Bg Shape" d="M2501.789,2599.6c-18.07-31.887-315.01-114.078-517.975-137.971-445.593-52.456-1133.638-303.2-1273.4-936.32C579.919,934.191,452.538,858.2,401.8,740.922c-36.744-84.931-55.821-186.244,101.355-545.816,1.993-4.559,96.4,81.2,97.93,77.711,23.35-2.946,325.754,440.817,706.559,872.527,141.073,159.932,270.21,331.612,391.954,484.023,44,55.087,95.523,105.25,129.058,159.373,13.473,21.744,59.858,19.906,46.126,56.96C1874.779,1845.7,2503.083,2601.887,2501.789,2599.6Z" transform="matrix(-0.629, 0.777, -0.777, -0.629, 3594.703, 1343.576)" fill="#f92524"/>
</svg>
