<svg xmlns="http://www.w3.org/2000/svg" xmlns:xlink="http://www.w3.org/1999/xlink" width="632" height="657" viewBox="0 0 632 657">
  <defs>
    <clipPath id="clip-path">
      <path id="Path_1" data-name="Path 1" d="M0-256H432V0H0Z" fill="none"/>
    </clipPath>
  </defs>
  <g id="Group_5" data-name="Group 5" transform="translate(-644 -184)">
    <g id="Ellipse_1" data-name="Ellipse 1" transform="translate(710 263)" fill="#f92421" stroke="#f92423" stroke-width="1">
      <circle cx="250" cy="250" r="250" stroke="none"/>
      <circle cx="250" cy="250" r="249.5" fill="none"/>
    </g>
    <g id="Ellipse_2" data-name="Ellipse 2" transform="translate(1076 312)" fill="#ff9997" stroke="#ff9b97" stroke-width="1">
      <circle cx="100" cy="100" r="100" stroke="none"/>
      <circle cx="100" cy="100" r="99.5" fill="none"/>
    </g>
    <g id="Ellipse_3" data-name="Ellipse 3" transform="translate(1076 540)" fill="#ff9a96" stroke="#ff9996" stroke-width="1">
      <circle cx="100" cy="100" r="100" stroke="none"/>
      <circle cx="100" cy="100" r="99.5" fill="none"/>
    </g>
    <g id="Ellipse_4" data-name="Ellipse 4" transform="translate(860 641)" fill="#ff9a96" stroke="#ff9996" stroke-width="1">
      <circle cx="100" cy="100" r="100" stroke="none"/>
      <circle cx="100" cy="100" r="99.5" fill="none"/>
    </g>
    <g id="Ellipse_5" data-name="Ellipse 5" transform="translate(860 184)" fill="#ff9a96" stroke="#ff9996" stroke-width="1">
      <circle cx="100" cy="100" r="100" stroke="none"/>
      <circle cx="100" cy="100" r="99.5" fill="none"/>
    </g>
    <g id="Ellipse_6" data-name="Ellipse 6" transform="translate(644 312)" fill="#ff9a96" stroke="#ff9996" stroke-width="1">
      <circle cx="100" cy="100" r="100" stroke="none"/>
      <circle cx="100" cy="100" r="99.5" fill="none"/>
    </g>
    <g id="Ellipse_7" data-name="Ellipse 7" transform="translate(644 540)" fill="#ff9a96" stroke="#ff9996" stroke-width="1">
      <circle cx="100" cy="100" r="100" stroke="none"/>
      <circle cx="100" cy="100" r="99.5" fill="none"/>
    </g>
    <path id="Path_8" data-name="Path 8" d="M1.85-17.45A17.352,17.352,0,0,0,19.6.3c7.25,0,13.5-3.6,16.15-10.4H28.9c-1.85,3.7-5.15,5.45-9.3,5.45-6.9,0-11.9-4.95-11.9-12.8s5-12.75,11.9-12.75c4.15,0,7.45,1.75,9.3,5.45h6.85C33.1-31.55,26.85-35.2,19.6-35.2A17.382,17.382,0,0,0,1.85-17.45Zm66.8,3.65c0-8.65-6.2-14.2-14.05-14.2S40.55-22.45,40.55-13.8,46.5.45,54.35.45C62.25.45,68.65-5.15,68.65-13.8Zm-22.3,0c0-6.25,3.85-9.25,8.15-9.25,4.25,0,8.3,3,8.3,9.25s-4.2,9.3-8.45,9.3C50.05-4.5,46.35-7.55,46.35-13.8ZM80-14.5c0-5.85,2.6-7.6,6.8-7.6h1.45V-28A8.974,8.974,0,0,0,80-23.55v-4H74.3V0H80Zm25.1-8.7c4.25,0,7.6,2.7,7.7,6.95H97.55C98.15-20.6,101.25-23.2,105.1-23.2ZM118-8.2h-6.15a6.67,6.67,0,0,1-6.5,3.85,7.578,7.578,0,0,1-7.85-7.3h21.05a17.584,17.584,0,0,0,.2-2.8c0-8.1-5.55-13.55-13.4-13.55C97.2-28,91.6-22.45,91.6-13.8S97.45.45,105.35.45C112.1.45,116.45-3.4,118-8.2Zm32.95,2.35-10.3-28.9h-6.1L147.65,0h6.6L167.3-34.75h-6Zm19.2-8.05c0,8.5,5.75,14.35,12.9,14.35A11.858,11.858,0,0,0,192.7-4.1V0h5.75V-27.55H192.7v4A11.727,11.727,0,0,0,183.15-28C175.9-28,170.15-22.4,170.15-13.9Zm22.55.1c0,5.95-4.05,9.3-8.35,9.3-4.25,0-8.35-3.45-8.35-9.4s4.1-9.15,8.35-9.15C188.65-23.05,192.7-19.7,192.7-13.8ZM205.95,0h5.7V-37h-5.7ZM244.1-27.55h-5.7V-12.2c0,5.05-2.75,7.65-6.95,7.65-4.15,0-6.9-2.6-6.9-7.65V-27.55H218.9v16.2C218.9-3.65,223.8.4,230.25.4a10.255,10.255,0,0,0,8.15-3.7V0h5.7Zm19.1,4.35c4.25,0,7.6,2.7,7.7,6.95H255.65C256.25-20.6,259.35-23.2,263.2-23.2Zm12.9,15h-6.15a6.67,6.67,0,0,1-6.5,3.85,7.578,7.578,0,0,1-7.85-7.3h21.05a17.581,17.581,0,0,0,.2-2.8c0-8.1-5.55-13.55-13.4-13.55-8.15,0-13.75,5.55-13.75,14.2S255.55.45,263.45.45C270.2.45,274.55-3.4,276.1-8.2Zm26.9.5c-.3-9.95-15.85-6.85-15.85-12.4,0-1.85,1.6-3.1,4.65-3.1,3.1,0,4.95,1.65,5.15,4.05h5.7c-.3-5.5-4.4-8.85-10.65-8.85-6.5,0-10.6,3.55-10.6,7.95,0,10.1,16,7,16,12.4,0,1.9-1.75,3.3-5.05,3.3-3.15,0-5.3-1.85-5.5-4.1h-5.9c.25,5,4.9,8.9,11.5,8.9C298.95.45,303-3.05,303-7.7Z" transform="translate(808 522)" fill="#fff"/>
    <path id="Path_2" data-name="Path 2" d="M-46.4-16.7H-55.62V0H-46.4V-2.232h-6.48V-7.344h5.76V-9.576h-5.76v-4.9h6.48Zm1.8,3.48L-39.588,0h3.264l5.04-13.224h-2.9L-37.932-2.448l-3.744-10.776ZM-29.22,0h2.736V-13.224H-29.22Zm1.392-14.976A1.726,1.726,0,0,0-26.1-16.728a1.726,1.726,0,0,0-1.728-1.752,1.731,1.731,0,0,0-1.752,1.752A1.731,1.731,0,0,0-27.828-14.976Zm4.032,8.3c0,4.08,2.76,6.888,6.24,6.888a5.483,5.483,0,0,0,4.584-2.208V0h2.76V-17.76h-2.76v6.384a6.091,6.091,0,0,0-4.56-2.064C-21.036-13.44-23.8-10.752-23.8-6.672Zm10.824.048c0,2.856-1.944,4.464-4.008,4.464-2.04,0-4.008-1.656-4.008-4.512a4.057,4.057,0,0,1,4.008-4.392A4.1,4.1,0,0,1-12.972-6.624Zm11.928-4.512A3.434,3.434,0,0,1,2.652-7.8h-7.32A3.6,3.6,0,0,1-1.044-11.136Zm6.192,7.2H2.2A3.2,3.2,0,0,1-.924-2.088a3.638,3.638,0,0,1-3.768-3.5h10.1a8.44,8.44,0,0,0,.1-1.344,6.167,6.167,0,0,0-6.432-6.5c-3.912,0-6.6,2.664-6.6,6.816S-4.716.216-.924.216A6.043,6.043,0,0,0,5.148-3.936ZM17.58,0h2.712V-7.8c0-3.7-2.328-5.64-5.424-5.64a5.087,5.087,0,0,0-3.936,1.728v-1.512H8.2V0h2.736V-7.392c0-2.424,1.32-3.672,3.336-3.672,1.992,0,3.312,1.248,3.312,3.672Zm5.28-6.624c0,4.152,2.688,6.84,6.48,6.84a5.94,5.94,0,0,0,6.1-4.392H32.484A3.02,3.02,0,0,1,29.34-2.088c-2.208,0-3.672-1.632-3.672-4.536,0-2.88,1.464-4.512,3.672-4.512a3.09,3.09,0,0,1,3.144,2.088h2.952c-.744-2.784-2.856-4.392-6.1-4.392C25.548-13.44,22.86-10.752,22.86-6.624Zm20.88-4.512a3.434,3.434,0,0,1,3.7,3.336h-7.32A3.6,3.6,0,0,1,43.74-11.136Zm6.192,7.2H46.98a3.2,3.2,0,0,1-3.12,1.848,3.638,3.638,0,0,1-3.768-3.5H50.2a8.44,8.44,0,0,0,.1-1.344,6.167,6.167,0,0,0-6.432-6.5c-3.912,0-6.6,2.664-6.6,6.816s2.808,6.84,6.6,6.84A6.043,6.043,0,0,0,49.932-3.936Zm-79.488,34.16c0,1.608-1.128,2.544-2.976,2.544h-3.7V27.56h3.6C-30.8,27.56-29.556,28.568-29.556,30.224Zm-.432-7.272c0,1.536-1.08,2.376-2.856,2.376h-3.384V20.552h3.384C-31.068,20.552-29.988,21.44-29.988,22.952Zm3.168,7.56a4.149,4.149,0,0,0-3.216-4.08A3.9,3.9,0,0,0-27.2,22.616c0-2.352-1.872-4.3-5.4-4.3h-6.36V35h6.672C-28.884,35-26.82,33.056-26.82,30.512Zm2.064-2.184c0,4.08,2.76,6.888,6.192,6.888a5.692,5.692,0,0,0,4.632-2.184V35h2.76V21.776h-2.76V23.7a5.629,5.629,0,0,0-4.584-2.136C-22,21.56-24.756,24.248-24.756,28.328Zm10.824.048c0,2.856-1.944,4.464-4.008,4.464-2.04,0-4.008-1.656-4.008-4.512a4.057,4.057,0,0,1,4.008-4.392A4.1,4.1,0,0,1-13.932,28.376ZM2.292,31.3c-.144-4.776-7.608-3.288-7.608-5.952,0-.888.768-1.488,2.232-1.488A2.187,2.187,0,0,1-.612,25.808H2.124C1.98,23.168.012,21.56-2.988,21.56c-3.12,0-5.088,1.7-5.088,3.816,0,4.848,7.68,3.36,7.68,5.952,0,.912-.84,1.584-2.424,1.584a2.413,2.413,0,0,1-2.64-1.968H-8.292c.12,2.4,2.352,4.272,5.52,4.272C.348,35.216,2.292,33.536,2.292,31.3Zm8.52-7.44a3.434,3.434,0,0,1,3.7,3.336H7.188A3.6,3.6,0,0,1,10.812,23.864ZM17,31.064H14.052a3.2,3.2,0,0,1-3.12,1.848,3.638,3.638,0,0,1-3.768-3.5h10.1a8.44,8.44,0,0,0,.1-1.344,6.167,6.167,0,0,0-6.432-6.5c-3.912,0-6.6,2.664-6.6,6.816s2.808,6.84,6.6,6.84A6.043,6.043,0,0,0,17,31.064Zm2.136-2.736c0,4.08,2.76,6.888,6.24,6.888a5.483,5.483,0,0,0,4.584-2.208V35h2.76V17.24h-2.76v6.384A6.091,6.091,0,0,0,25.4,21.56C21.9,21.56,19.14,24.248,19.14,28.328Zm10.824.048c0,2.856-1.944,4.464-4.008,4.464-2.04,0-4.008-1.656-4.008-4.512a4.057,4.057,0,0,1,4.008-4.392A4.1,4.1,0,0,1,29.964,28.376ZM-51.192,61V55.552h3.024c2.136,0,3.1,1.008,3.1,2.736,0,1.68-.96,2.712-3.1,2.712Zm8.928-2.712c0-2.712-1.944-4.968-5.9-4.968h-5.76V70h2.736V63.232h3.024C-43.824,63.232-42.264,60.664-42.264,58.288Zm5.352,4.752c0-2.808,1.248-3.648,3.264-3.648h.7V56.56a4.307,4.307,0,0,0-3.96,2.136v-1.92h-2.736V70h2.736Zm5.568.288c0,4.08,2.76,6.888,6.192,6.888a5.692,5.692,0,0,0,4.632-2.184V70h2.76V56.776h-2.76V58.7A5.629,5.629,0,0,0-25.1,56.56C-28.584,56.56-31.344,59.248-31.344,63.328Zm10.824.048c0,2.856-1.944,4.464-4.008,4.464-2.04,0-4.008-1.656-4.008-4.512a4.057,4.057,0,0,1,4.008-4.392A4.1,4.1,0,0,1-20.52,63.376Zm5.448,0c0,4.152,2.688,6.84,6.48,6.84a5.94,5.94,0,0,0,6.1-4.392H-5.448a3.02,3.02,0,0,1-3.144,2.088c-2.208,0-3.672-1.632-3.672-4.536,0-2.88,1.464-4.512,3.672-4.512a3.09,3.09,0,0,1,3.144,2.088H-2.5c-.744-2.784-2.856-4.392-6.1-4.392C-12.384,56.56-15.072,59.248-15.072,63.376ZM.672,66.328C.672,69.016,2.136,70,4.488,70h2.16V67.72H4.968c-1.152,0-1.536-.408-1.536-1.392v-7.32H6.648V56.776H3.432V53.488H.672v3.288H-.888v2.232H.672ZM9.168,70H11.9V56.776H9.168ZM10.56,55.024a1.752,1.752,0,1,0-1.752-1.752A1.726,1.726,0,0,0,10.56,55.024Zm4.032,8.352c0,4.152,2.688,6.84,6.48,6.84a5.94,5.94,0,0,0,6.1-4.392H24.216a3.02,3.02,0,0,1-3.144,2.088c-2.208,0-3.672-1.632-3.672-4.536,0-2.88,1.464-4.512,3.672-4.512a3.09,3.09,0,0,1,3.144,2.088h2.952c-.744-2.784-2.856-4.392-6.1-4.392C17.28,56.56,14.592,59.248,14.592,63.376Zm20.88-4.512a3.434,3.434,0,0,1,3.7,3.336h-7.32A3.6,3.6,0,0,1,35.472,58.864Zm6.192,7.2H38.712a3.2,3.2,0,0,1-3.12,1.848,3.638,3.638,0,0,1-3.768-3.5h10.1a8.44,8.44,0,0,0,.1-1.344,6.167,6.167,0,0,0-6.432-6.5c-3.912,0-6.6,2.664-6.6,6.816s2.808,6.84,6.6,6.84A6.043,6.043,0,0,0,41.664,66.064Zm12.912.24c-.144-4.776-7.608-3.288-7.608-5.952,0-.888.768-1.488,2.232-1.488a2.187,2.187,0,0,1,2.472,1.944h2.736c-.144-2.64-2.112-4.248-5.112-4.248-3.12,0-5.088,1.7-5.088,3.816,0,4.848,7.68,3.36,7.68,5.952,0,.912-.84,1.584-2.424,1.584a2.413,2.413,0,0,1-2.64-1.968H43.992c.12,2.4,2.352,4.272,5.52,4.272C52.632,70.216,54.576,68.536,54.576,66.3Z" transform="translate(1176 386)" fill="#fff"/>
    <text id="Continual_Self_Improvement" data-name="Continual
Self
Improvement" transform="translate(1176 614)" fill="#fff" font-size="24" font-family="Poppins-Medium, Poppins" font-weight="500"><tspan x="-59.232" y="0">Continual</tspan><tspan x="-21.804" y="35">Self</tspan><tspan x="-82.476" y="70">Improvement</tspan></text>
    <path id="Path_6" data-name="Path 6" d="M-56.04-16.68V0h8.376V-2.208H-53.3V-16.68ZM-32.784-6.624a6.521,6.521,0,0,0-6.744-6.816,6.521,6.521,0,0,0-6.744,6.816A6.447,6.447,0,0,0-39.648.216,6.624,6.624,0,0,0-32.784-6.624Zm-10.7,0c0-3,1.848-4.44,3.912-4.44,2.04,0,3.984,1.44,3.984,4.44S-37.608-2.16-39.648-2.16C-41.712-2.16-43.488-3.624-43.488-6.624ZM-20.688,0h2.712V-7.8c0-3.7-2.328-5.64-5.424-5.64a5.087,5.087,0,0,0-3.936,1.728v-1.512h-2.736V0h2.736V-7.392c0-2.424,1.32-3.672,3.336-3.672,1.992,0,3.312,1.248,3.312,3.672Zm5.28-6.672c0,4.08,2.76,6.888,6.24,6.888A5.677,5.677,0,0,0-4.584-1.992V.216c0,2.64-1.584,3.936-3.7,3.936a3.686,3.686,0,0,1-3.768-2.3H-14.76c.336,2.928,2.952,4.68,6.48,4.68,4.128,0,6.456-2.712,6.456-6.312v-13.44h-2.76v1.92A5.6,5.6,0,0,0-9.168-13.44C-12.648-13.44-15.408-10.752-15.408-6.672Zm10.824.048c0,2.856-1.944,4.464-4.008,4.464-2.04,0-4.008-1.656-4.008-4.512a4.057,4.057,0,0,1,4.008-4.392A4.1,4.1,0,0,1-4.584-6.624ZM7.344-11.136A3.434,3.434,0,0,1,11.04-7.8H3.72A3.6,3.6,0,0,1,7.344-11.136Zm6.192,7.2H10.584a3.2,3.2,0,0,1-3.12,1.848A3.638,3.638,0,0,1,3.7-5.592H13.8a8.44,8.44,0,0,0,.1-1.344,6.167,6.167,0,0,0-6.432-6.5c-3.912,0-6.6,2.664-6.6,6.816S3.672.216,7.464.216A6.043,6.043,0,0,0,13.536-3.936Zm1.488-9.288L20.04,0H23.3l5.04-13.224h-2.9L21.7-2.448,17.952-13.224ZM30.408,0h2.736V-13.224H30.408ZM31.8-14.976a1.726,1.726,0,0,0,1.728-1.752A1.726,1.726,0,0,0,31.8-18.48a1.731,1.731,0,0,0-1.752,1.752A1.731,1.731,0,0,0,31.8-14.976Zm5.376,11.3C37.176-.984,38.64,0,40.992,0h2.16V-2.28h-1.68c-1.152,0-1.536-.408-1.536-1.392v-7.32h3.216v-2.232H39.936v-3.288h-2.76v3.288h-1.56v2.232h1.56Zm13.7.528-3.72-10.08H44.112L49.32-.216,46.632,6.216h2.832l8.112-19.44H54.744Z" transform="translate(960 750)" fill="#fff"/>
    <path id="Path_5" data-name="Path 5" d="M-80.736-8.376a8.329,8.329,0,0,0,8.52,8.52,7.931,7.931,0,0,0,7.752-4.992h-3.288a4.66,4.66,0,0,1-4.464,2.616c-3.312,0-5.712-2.376-5.712-6.144s2.4-6.12,5.712-6.12a4.66,4.66,0,0,1,4.464,2.616h3.288A7.951,7.951,0,0,0-72.216-16.9,8.343,8.343,0,0,0-80.736-8.376Zm32.064,1.752a6.521,6.521,0,0,0-6.744-6.816A6.521,6.521,0,0,0-62.16-6.624,6.447,6.447,0,0,0-55.536.216,6.624,6.624,0,0,0-48.672-6.624Zm-10.7,0c0-3,1.848-4.44,3.912-4.44,2.04,0,3.984,1.44,3.984,4.44S-53.5-2.16-55.536-2.16C-57.6-2.16-59.376-3.624-59.376-6.624ZM-27.216,0H-24.5V-7.8c0-3.7-2.352-5.64-5.448-5.64a5.178,5.178,0,0,0-4.608,2.616,5.1,5.1,0,0,0-4.752-2.616,5.036,5.036,0,0,0-3.912,1.728v-1.512H-45.96V0h2.736V-7.392c0-2.424,1.32-3.672,3.336-3.672,1.992,0,3.312,1.248,3.312,3.672V0h2.712V-7.392c0-2.424,1.32-3.672,3.336-3.672,1.992,0,3.312,1.248,3.312,3.672ZM-2.28,0H.432V-7.8c0-3.7-2.352-5.64-5.448-5.64a5.178,5.178,0,0,0-4.608,2.616,5.1,5.1,0,0,0-4.752-2.616,5.036,5.036,0,0,0-3.912,1.728v-1.512h-2.736V0h2.736V-7.392c0-2.424,1.32-3.672,3.336-3.672,1.992,0,3.312,1.248,3.312,3.672V0h2.712V-7.392c0-2.424,1.32-3.672,3.336-3.672,1.992,0,3.312,1.248,3.312,3.672ZM3.912,0H6.648V-13.224H3.912ZM5.3-14.976a1.726,1.726,0,0,0,1.728-1.752A1.726,1.726,0,0,0,5.3-18.48a1.731,1.731,0,0,0-1.752,1.752A1.731,1.731,0,0,0,5.3-14.976Zm5.376,11.3C10.68-.984,12.144,0,14.5,0h2.16V-2.28h-1.68c-1.152,0-1.536-.408-1.536-1.392v-7.32h3.216v-2.232H13.44v-3.288H10.68v3.288H9.12v2.232h1.56ZM37.92,0h2.712V-7.8c0-3.7-2.352-5.64-5.448-5.64a5.178,5.178,0,0,0-4.608,2.616,5.1,5.1,0,0,0-4.752-2.616,5.036,5.036,0,0,0-3.912,1.728v-1.512H19.176V0h2.736V-7.392c0-2.424,1.32-3.672,3.336-3.672,1.992,0,3.312,1.248,3.312,3.672V0h2.712V-7.392c0-2.424,1.32-3.672,3.336-3.672,1.992,0,3.312,1.248,3.312,3.672ZM49.68-11.136a3.434,3.434,0,0,1,3.7,3.336h-7.32A3.6,3.6,0,0,1,49.68-11.136Zm6.192,7.2H52.92A3.2,3.2,0,0,1,49.8-2.088a3.638,3.638,0,0,1-3.768-3.5h10.1a8.44,8.44,0,0,0,.1-1.344,6.167,6.167,0,0,0-6.432-6.5c-3.912,0-6.6,2.664-6.6,6.816S46.008.216,49.8.216A6.043,6.043,0,0,0,55.872-3.936ZM68.3,0h2.712V-7.8c0-3.7-2.328-5.64-5.424-5.64a5.087,5.087,0,0,0-3.936,1.728v-1.512H58.92V0h2.736V-7.392c0-2.424,1.32-3.672,3.336-3.672,1.992,0,3.312,1.248,3.312,3.672Zm6.624-3.672C74.928-.984,76.392,0,78.744,0H80.9V-2.28h-1.68c-1.152,0-1.536-.408-1.536-1.392v-7.32H80.9v-2.232H77.688v-3.288h-2.76v3.288h-1.56v2.232h1.56Z" transform="translate(744 649)" fill="#fff"/>
    <path id="Path_7" data-name="Path 7" d="M-58.344-8.376a8.329,8.329,0,0,0,8.52,8.52,7.931,7.931,0,0,0,7.752-4.992H-45.36a4.66,4.66,0,0,1-4.464,2.616c-3.312,0-5.712-2.376-5.712-6.144s2.4-6.12,5.712-6.12A4.66,4.66,0,0,1-45.36-11.88h3.288A7.951,7.951,0,0,0-49.824-16.9,8.343,8.343,0,0,0-58.344-8.376ZM-26.28-6.624a6.521,6.521,0,0,0-6.744-6.816,6.521,6.521,0,0,0-6.744,6.816A6.447,6.447,0,0,0-33.144.216,6.624,6.624,0,0,0-26.28-6.624Zm-10.7,0c0-3,1.848-4.44,3.912-4.44,2.04,0,3.984,1.44,3.984,4.44S-31.1-2.16-33.144-2.16C-35.208-2.16-36.984-3.624-36.984-6.624ZM-14.184,0h2.712V-7.8c0-3.7-2.328-5.64-5.424-5.64a5.087,5.087,0,0,0-3.936,1.728v-1.512h-2.736V0h2.736V-7.392c0-2.424,1.32-3.672,3.336-3.672,1.992,0,3.312,1.248,3.312,3.672ZM-7.56-3.672C-7.56-.984-6.1,0-3.744,0h2.16V-2.28h-1.68C-4.416-2.28-4.8-2.688-4.8-3.672v-7.32h3.216v-2.232H-4.8v-3.288H-7.56v3.288H-9.12v2.232h1.56ZM.936,0H3.672V-13.224H.936ZM2.328-14.976a1.726,1.726,0,0,0,1.728-1.752A1.726,1.726,0,0,0,2.328-18.48,1.731,1.731,0,0,0,.576-16.728,1.731,1.731,0,0,0,2.328-14.976ZM16.656,0h2.712V-7.8c0-3.7-2.328-5.64-5.424-5.64a5.087,5.087,0,0,0-3.936,1.728v-1.512H7.272V0h2.736V-7.392c0-2.424,1.32-3.672,3.336-3.672,1.992,0,3.312,1.248,3.312,3.672ZM34.824-13.224H32.088v7.368c0,2.424-1.32,3.672-3.336,3.672-1.992,0-3.312-1.248-3.312-3.672v-7.368H22.728v7.776c0,3.7,2.352,5.64,5.448,5.64a4.922,4.922,0,0,0,3.912-1.776V0h2.736Zm2.688,6.552c0,4.08,2.76,6.888,6.192,6.888a5.692,5.692,0,0,0,4.632-2.184V0H51.1V-13.224h-2.76v1.92a5.629,5.629,0,0,0-4.584-2.136C40.272-13.44,37.512-10.752,37.512-6.672Zm10.824.048c0,2.856-1.944,4.464-4.008,4.464-2.04,0-4.008-1.656-4.008-4.512a4.057,4.057,0,0,1,4.008-4.392A4.1,4.1,0,0,1,48.336-6.624ZM54.7,0h2.736V-17.76H54.7ZM-8.748,30.272c0-6.1-8.832-3.744-8.832-7.512,0-1.608,1.224-2.376,2.808-2.328a2.61,2.61,0,0,1,2.808,2.208H-8.94c-.24-2.856-2.5-4.536-5.688-4.536-3.408,0-5.736,1.824-5.736,4.752,0,6.144,8.856,3.528,8.856,7.56,0,1.416-1.08,2.448-3,2.448a2.677,2.677,0,0,1-2.976-2.472h-2.928c0,2.952,2.568,4.776,5.9,4.776C-10.788,35.168-8.748,32.768-8.748,30.272ZM.06,23.864a3.434,3.434,0,0,1,3.7,3.336h-7.32A3.6,3.6,0,0,1,.06,23.864Zm6.192,7.2H3.3A3.2,3.2,0,0,1,.18,32.912a3.638,3.638,0,0,1-3.768-3.5h10.1a8.44,8.44,0,0,0,.1-1.344A6.167,6.167,0,0,0,.18,21.56c-3.912,0-6.6,2.664-6.6,6.816s2.808,6.84,6.6,6.84A6.043,6.043,0,0,0,6.252,31.064ZM9.3,35h2.736V17.24H9.3Zm6.672,0h2.76V24.008H21.18V21.776H18.732V20.84c0-1.512.576-2.088,2.256-2.088v-2.28c-3.456,0-5.016,1.32-5.016,4.368v.936h-1.56v2.232h1.56ZM-80.676,70h2.736V53.32h-2.736Zm25.08,0h2.712V62.2c0-3.7-2.352-5.64-5.448-5.64a5.178,5.178,0,0,0-4.608,2.616,5.1,5.1,0,0,0-4.752-2.616A5.036,5.036,0,0,0-71.6,58.288V56.776H-74.34V70H-71.6V62.608c0-2.424,1.32-3.672,3.336-3.672,1.992,0,3.312,1.248,3.312,3.672V70h2.712V62.608c0-2.424,1.32-3.672,3.336-3.672,1.992,0,3.312,1.248,3.312,3.672Zm8.928-11.28V56.776H-49.4V76.288h2.736V68.08a5.979,5.979,0,0,0,4.608,2.136c3.48,0,6.216-2.808,6.216-6.888S-38.58,56.56-42.06,56.56A5.77,5.77,0,0,0-46.668,58.72Zm8.04,4.608c0,2.856-1.968,4.512-4.032,4.512a4.122,4.122,0,0,1-4.008-4.464,4.115,4.115,0,0,1,4.008-4.44A4.061,4.061,0,0,1-38.628,63.328Zm8.232-.288c0-2.808,1.248-3.648,3.264-3.648h.7V56.56A4.307,4.307,0,0,0-30.4,58.7v-1.92h-2.736V70H-30.4Zm19.08.336A6.521,6.521,0,0,0-18.06,56.56,6.521,6.521,0,0,0-24.8,63.376a6.447,6.447,0,0,0,6.624,6.84A6.624,6.624,0,0,0-11.316,63.376Zm-10.7,0c0-3,1.848-4.44,3.912-4.44,2.04,0,3.984,1.44,3.984,4.44S-16.14,67.84-18.18,67.84C-20.244,67.84-22.02,66.376-22.02,63.376Zm11.856-6.6L-5.148,70h3.264l5.04-13.224H.252L-3.492,67.552-7.236,56.776Zm20.952,2.088a3.434,3.434,0,0,1,3.7,3.336H7.164A3.6,3.6,0,0,1,10.788,58.864Zm6.192,7.2H14.028a3.2,3.2,0,0,1-3.12,1.848,3.638,3.638,0,0,1-3.768-3.5h10.1a8.44,8.44,0,0,0,.1-1.344,6.167,6.167,0,0,0-6.432-6.5c-3.912,0-6.6,2.664-6.6,6.816s2.808,6.84,6.6,6.84A6.043,6.043,0,0,0,16.98,66.064ZM38.772,70h2.712V62.2c0-3.7-2.352-5.64-5.448-5.64a5.178,5.178,0,0,0-4.608,2.616,5.1,5.1,0,0,0-4.752-2.616,5.036,5.036,0,0,0-3.912,1.728V56.776H20.028V70h2.736V62.608c0-2.424,1.32-3.672,3.336-3.672,1.992,0,3.312,1.248,3.312,3.672V70h2.712V62.608c0-2.424,1.32-3.672,3.336-3.672,1.992,0,3.312,1.248,3.312,3.672Zm11.76-11.136a3.434,3.434,0,0,1,3.7,3.336h-7.32A3.6,3.6,0,0,1,50.532,58.864Zm6.192,7.2H53.772a3.2,3.2,0,0,1-3.12,1.848,3.638,3.638,0,0,1-3.768-3.5h10.1a8.44,8.44,0,0,0,.1-1.344,6.167,6.167,0,0,0-6.432-6.5c-3.912,0-6.6,2.664-6.6,6.816s2.808,6.84,6.6,6.84A6.043,6.043,0,0,0,56.724,66.064ZM69.156,70h2.712V62.2c0-3.7-2.328-5.64-5.424-5.64a5.087,5.087,0,0,0-3.936,1.728V56.776H59.772V70h2.736V62.608c0-2.424,1.32-3.672,3.336-3.672,1.992,0,3.312,1.248,3.312,3.672Zm6.624-3.672C75.78,69.016,77.244,70,79.6,70h2.16V67.72h-1.68c-1.152,0-1.536-.408-1.536-1.392v-7.32h3.216V56.776H78.54V53.488H75.78v3.288H74.22v2.232h1.56Z" transform="translate(1176 614)" fill="#fff"/>
    <path id="Path_3" data-name="Path 3" d="M-27.036,0H-24.3V-16.68h-2.736v7.152h-7.848V-16.68H-37.62V0h2.736V-7.3h7.848Zm11.9-11.136a3.434,3.434,0,0,1,3.7,3.336h-7.32A3.6,3.6,0,0,1-15.132-11.136Zm6.192,7.2h-2.952a3.2,3.2,0,0,1-3.12,1.848,3.638,3.638,0,0,1-3.768-3.5h10.1a8.44,8.44,0,0,0,.1-1.344,6.167,6.167,0,0,0-6.432-6.5c-3.912,0-6.6,2.664-6.6,6.816s2.808,6.84,6.6,6.84A6.043,6.043,0,0,0-8.94-3.936ZM-6.8-6.672C-6.8-2.592-4.044.216-.612.216A5.692,5.692,0,0,0,4.02-1.968V0H6.78V-13.224H4.02v1.92A5.629,5.629,0,0,0-.564-13.44C-4.044-13.44-6.8-10.752-6.8-6.672ZM4.02-6.624C4.02-3.768,2.076-2.16.012-2.16-2.028-2.16-4-3.816-4-6.672A4.057,4.057,0,0,1,.012-11.064,4.1,4.1,0,0,1,4.02-6.624ZM10.38,0h2.736V-17.76H10.38Zm6.768-3.672C17.148-.984,18.612,0,20.964,0h2.16V-2.28h-1.68c-1.152,0-1.536-.408-1.536-1.392v-7.32h3.216v-2.232H19.908v-3.288h-2.76v3.288h-1.56v2.232h1.56ZM25.644,0H28.38V-7.392c0-2.424,1.32-3.672,3.336-3.672,1.992,0,3.312,1.248,3.312,3.672V0H37.74V-7.8c0-3.7-2.3-5.64-5.256-5.64a5.242,5.242,0,0,0-4.1,1.752V-17.76H25.644Z" transform="translate(960 293)" fill="#fff"/>
    <path id="Path_4" data-name="Path 4" d="M-69.168-4.728c0-6.1-8.832-3.744-8.832-7.512,0-1.608,1.224-2.376,2.808-2.328a2.61,2.61,0,0,1,2.808,2.208h3.024c-.24-2.856-2.5-4.536-5.688-4.536-3.408,0-5.736,1.824-5.736,4.752,0,6.144,8.856,3.528,8.856,7.56,0,1.416-1.08,2.448-3,2.448A2.677,2.677,0,0,1-77.9-4.608h-2.928c0,2.952,2.568,4.776,5.9,4.776C-71.208.168-69.168-2.232-69.168-4.728Zm15.216-8.5h-2.736v7.368c0,2.424-1.32,3.672-3.336,3.672-1.992,0-3.312-1.248-3.312-3.672v-7.368h-2.712v7.776c0,3.7,2.352,5.64,5.448,5.64a4.922,4.922,0,0,0,3.912-1.776V0h2.736ZM-40.488-3.7C-40.632-8.472-48.1-6.984-48.1-9.648c0-.888.768-1.488,2.232-1.488a2.187,2.187,0,0,1,2.472,1.944h2.736c-.144-2.64-2.112-4.248-5.112-4.248-3.12,0-5.088,1.7-5.088,3.816,0,4.848,7.68,3.36,7.68,5.952,0,.912-.84,1.584-2.424,1.584a2.413,2.413,0,0,1-2.64-1.968h-2.832c.12,2.4,2.352,4.272,5.52,4.272C-42.432.216-40.488-1.464-40.488-3.7Zm3.384.024C-37.1-.984-35.64,0-33.288,0h2.16V-2.28h-1.68c-1.152,0-1.536-.408-1.536-1.392v-7.32h3.216v-2.232h-3.216v-3.288H-37.1v3.288h-1.56v2.232h1.56Zm7.584-3c0,4.08,2.76,6.888,6.192,6.888A5.692,5.692,0,0,0-18.7-1.968V0h2.76V-13.224H-18.7v1.92A5.629,5.629,0,0,0-23.28-13.44C-26.76-13.44-29.52-10.752-29.52-6.672Zm10.824.048c0,2.856-1.944,4.464-4.008,4.464-2.04,0-4.008-1.656-4.008-4.512A4.057,4.057,0,0,1-22.7-11.064,4.1,4.1,0,0,1-18.7-6.624ZM-12.336,0H-9.6V-13.224h-2.736Zm1.392-14.976a1.726,1.726,0,0,0,1.728-1.752,1.726,1.726,0,0,0-1.728-1.752A1.731,1.731,0,0,0-12.7-16.728,1.731,1.731,0,0,0-10.944-14.976ZM3.384,0H6.1V-7.8c0-3.7-2.328-5.64-5.424-5.64a5.087,5.087,0,0,0-3.936,1.728v-1.512H-6V0h2.736V-7.392c0-2.424,1.32-3.672,3.336-3.672,1.992,0,3.312,1.248,3.312,3.672Zm5.28-6.672c0,4.08,2.76,6.888,6.192,6.888a5.692,5.692,0,0,0,4.632-2.184V0h2.76V-13.224h-2.76v1.92A5.629,5.629,0,0,0,14.9-13.44C11.424-13.44,8.664-10.752,8.664-6.672Zm10.824.048c0,2.856-1.944,4.464-4.008,4.464-2.04,0-4.008-1.656-4.008-4.512a4.057,4.057,0,0,1,4.008-4.392A4.1,4.1,0,0,1,19.488-6.624Zm9.1-4.632v-6.5H25.848V0h2.736V-1.92A5.62,5.62,0,0,0,33.192.216c3.48,0,6.216-2.808,6.216-6.888S36.7-13.44,33.192-13.44A5.654,5.654,0,0,0,28.584-11.256Zm8.04,4.584c0,2.856-1.968,4.512-4.032,4.512a4.122,4.122,0,0,1-4.008-4.464,4.115,4.115,0,0,1,4.008-4.44A4.061,4.061,0,0,1,36.624-6.672ZM42.12,0h2.736V-13.224H42.12Zm1.392-14.976a1.726,1.726,0,0,0,1.728-1.752,1.726,1.726,0,0,0-1.728-1.752,1.731,1.731,0,0,0-1.752,1.752A1.731,1.731,0,0,0,43.512-14.976ZM48.456,0h2.736V-17.76H48.456Zm6.336,0h2.736V-13.224H54.792Zm1.392-14.976a1.726,1.726,0,0,0,1.728-1.752,1.726,1.726,0,0,0-1.728-1.752,1.731,1.731,0,0,0-1.752,1.752A1.731,1.731,0,0,0,56.184-14.976Zm5.376,11.3C61.56-.984,63.024,0,65.376,0h2.16V-2.28h-1.68c-1.152,0-1.536-.408-1.536-1.392v-7.32h3.216v-2.232H64.32v-3.288H61.56v3.288H60v2.232h1.56Zm13.7.528-3.72-10.08H68.5L73.7-.216,71.016,6.216h2.832l8.112-19.44H79.128Z" transform="translate(744 421)" fill="#fff"/>
  </g>
</svg>
