<svg xmlns="http://www.w3.org/2000/svg" xmlns:xlink="http://www.w3.org/1999/xlink" width="1920" height="1080" viewBox="0 0 1920 1080">
  <defs>
    <clipPath id="clip-Web_1920_1">
      <rect width="1920" height="1080"/>
    </clipPath>
  </defs>
  <g id="Web_1920_1" data-name="Web 1920 – 1" clip-path="url(#clip-Web_1920_1)">
    <rect width="1920" height="1080" fill="#fff"/>
    <g id="Group_1713" data-name="Group 1713" transform="translate(-653 3640)">
      <g id="Group_1484" data-name="Group 1484" transform="translate(782 -3941)">
        <text id="Home" transform="translate(720 86)" font-size="18" font-family="Poppins-Light, Poppins" font-weight="300" letter-spacing="0.03em"><tspan x="0" y="0">Home</tspan></text>
        <text id="About_Us" data-name="About Us" transform="translate(825 86)" font-size="18" font-family="Poppins-Light, Poppins" font-weight="300" letter-spacing="0.03em"><tspan x="0" y="0">About Us</tspan></text>
        <text id="Our_Classes" data-name="Our Classes" transform="translate(957 86)" font-size="18" font-family="Poppins-Light, Poppins" font-weight="300" letter-spacing="0.03em"><tspan x="0" y="0">Our Classes</tspan></text>
        <text id="Our_Trainers" data-name="Our Trainers" transform="translate(1118 86)" font-size="18" font-family="Poppins-Light, Poppins" font-weight="300" letter-spacing="0.03em"><tspan x="0" y="0">Our Trainers</tspan></text>
        <text id="Our_Pricing" data-name="Our Pricing" transform="translate(1281 86)" font-size="18" font-family="Poppins-Light, Poppins" font-weight="300" letter-spacing="0.03em"><tspan x="0" y="0">Our Pricing</tspan></text>
        <line id="Line_52" data-name="Line 52" x2="57" transform="translate(718.5 98.5)" fill="none" stroke="#f92524" stroke-width="3"/>
      </g>
      <rect id="Rectangle_227" data-name="Rectangle 227" width="187" height="58" rx="5" transform="translate(2213 -3887)" fill="#f92524"/>
      <g id="Group_1065" data-name="Group 1065" transform="translate(1961 -4597)">
        <text id="Contact_Us" data-name="Contact Us" transform="translate(288 746)" fill="#fff" font-size="20" font-family="Poppins-Light, Poppins" font-weight="300" letter-spacing="0.03em"><tspan x="0" y="0">Contact Us</tspan></text>
      </g>
      <path id="Path_3762" data-name="Path 3762" d="M5,0H193a5,5,0,0,1,5,5V53a5,5,0,0,1-5,5H5a5,5,0,0,1-5-5V5A5,5,0,0,1,5,0Z" transform="translate(951 -3143)" fill="#f92524"/>
      <g id="Group_1485" data-name="Group 1485" transform="translate(703 -3853)">
        <text id="Join_Today" data-name="Join Today" transform="translate(288 746)" fill="#fff" font-size="20" font-family="Poppins-Light, Poppins" font-weight="300" letter-spacing="0.03em"><tspan x="0" y="0">Join Today</tspan></text>
      </g>
      <g id="Group_1105" data-name="Group 1105" transform="translate(974 -5871)" opacity="0.46">
        <g id="Group_1094" data-name="Group 1094">
          <circle id="Ellipse_67" data-name="Ellipse 67" cx="4.5" cy="4.5" r="4.5" transform="translate(683 2443)" fill="#b6b8bd"/>
          <circle id="Ellipse_68" data-name="Ellipse 68" cx="4.5" cy="4.5" r="4.5" transform="translate(718 2443)" fill="#b6b8bd"/>
          <circle id="Ellipse_69" data-name="Ellipse 69" cx="4.5" cy="4.5" r="4.5" transform="translate(752 2443)" fill="#b6b8bd"/>
          <circle id="Ellipse_70" data-name="Ellipse 70" cx="4.5" cy="4.5" r="4.5" transform="translate(787 2443)" fill="#b6b8bd"/>
          <circle id="Ellipse_71" data-name="Ellipse 71" cx="4.5" cy="4.5" r="4.5" transform="translate(821 2443)" fill="#b6b8bd"/>
          <circle id="Ellipse_72" data-name="Ellipse 72" cx="4.5" cy="4.5" r="4.5" transform="translate(856 2443)" fill="#b6b8bd"/>
          <circle id="Ellipse_73" data-name="Ellipse 73" cx="4.5" cy="4.5" r="4.5" transform="translate(891 2443)" fill="#b6b8bd"/>
          <circle id="Ellipse_74" data-name="Ellipse 74" cx="4.5" cy="4.5" r="4.5" transform="translate(925 2443)" fill="#b6b8bd"/>
          <circle id="Ellipse_75" data-name="Ellipse 75" cx="4.5" cy="4.5" r="4.5" transform="translate(960 2443)" fill="#b6b8bd"/>
          <circle id="Ellipse_76" data-name="Ellipse 76" cx="4.5" cy="4.5" r="4.5" transform="translate(994 2443)" fill="#b6b8bd"/>
          <circle id="Ellipse_77" data-name="Ellipse 77" cx="4.5" cy="4.5" r="4.5" transform="translate(1029 2443)" fill="#b6b8bd"/>
          <circle id="Ellipse_78" data-name="Ellipse 78" cx="4.5" cy="4.5" r="4.5" transform="translate(1063 2443)" fill="#b6b8bd"/>
          <circle id="Ellipse_79" data-name="Ellipse 79" cx="4.5" cy="4.5" r="4.5" transform="translate(1098 2443)" fill="#b6b8bd"/>
        </g>
        <g id="Group_1095" data-name="Group 1095" transform="translate(0 42)">
          <circle id="Ellipse_67-2" data-name="Ellipse 67" cx="4.5" cy="4.5" r="4.5" transform="translate(683 2443)" fill="#b6b8bd"/>
          <circle id="Ellipse_68-2" data-name="Ellipse 68" cx="4.5" cy="4.5" r="4.5" transform="translate(718 2443)" fill="#b6b8bd"/>
          <circle id="Ellipse_69-2" data-name="Ellipse 69" cx="4.5" cy="4.5" r="4.5" transform="translate(752 2443)" fill="#b6b8bd"/>
          <circle id="Ellipse_70-2" data-name="Ellipse 70" cx="4.5" cy="4.5" r="4.5" transform="translate(787 2443)" fill="#b6b8bd"/>
          <circle id="Ellipse_71-2" data-name="Ellipse 71" cx="4.5" cy="4.5" r="4.5" transform="translate(821 2443)" fill="#b6b8bd"/>
          <circle id="Ellipse_72-2" data-name="Ellipse 72" cx="4.5" cy="4.5" r="4.5" transform="translate(856 2443)" fill="#b6b8bd"/>
          <circle id="Ellipse_73-2" data-name="Ellipse 73" cx="4.5" cy="4.5" r="4.5" transform="translate(891 2443)" fill="#b6b8bd"/>
          <circle id="Ellipse_74-2" data-name="Ellipse 74" cx="4.5" cy="4.5" r="4.5" transform="translate(925 2443)" fill="#b6b8bd"/>
          <circle id="Ellipse_75-2" data-name="Ellipse 75" cx="4.5" cy="4.5" r="4.5" transform="translate(960 2443)" fill="#b6b8bd"/>
          <circle id="Ellipse_76-2" data-name="Ellipse 76" cx="4.5" cy="4.5" r="4.5" transform="translate(994 2443)" fill="#b6b8bd"/>
          <circle id="Ellipse_77-2" data-name="Ellipse 77" cx="4.5" cy="4.5" r="4.5" transform="translate(1029 2443)" fill="#b6b8bd"/>
          <circle id="Ellipse_78-2" data-name="Ellipse 78" cx="4.5" cy="4.5" r="4.5" transform="translate(1063 2443)" fill="#b6b8bd"/>
          <circle id="Ellipse_79-2" data-name="Ellipse 79" cx="4.5" cy="4.5" r="4.5" transform="translate(1098 2443)" fill="#b6b8bd"/>
        </g>
        <g id="Group_1096" data-name="Group 1096" transform="translate(0 83)">
          <circle id="Ellipse_67-3" data-name="Ellipse 67" cx="4.5" cy="4.5" r="4.5" transform="translate(683 2443)" fill="#b6b8bd"/>
          <circle id="Ellipse_68-3" data-name="Ellipse 68" cx="4.5" cy="4.5" r="4.5" transform="translate(718 2443)" fill="#b6b8bd"/>
          <circle id="Ellipse_69-3" data-name="Ellipse 69" cx="4.5" cy="4.5" r="4.5" transform="translate(752 2443)" fill="#b6b8bd"/>
          <circle id="Ellipse_70-3" data-name="Ellipse 70" cx="4.5" cy="4.5" r="4.5" transform="translate(787 2443)" fill="#b6b8bd"/>
          <circle id="Ellipse_71-3" data-name="Ellipse 71" cx="4.5" cy="4.5" r="4.5" transform="translate(821 2443)" fill="#b6b8bd"/>
          <circle id="Ellipse_72-3" data-name="Ellipse 72" cx="4.5" cy="4.5" r="4.5" transform="translate(856 2443)" fill="#b6b8bd"/>
          <circle id="Ellipse_73-3" data-name="Ellipse 73" cx="4.5" cy="4.5" r="4.5" transform="translate(891 2443)" fill="#b6b8bd"/>
          <circle id="Ellipse_74-3" data-name="Ellipse 74" cx="4.5" cy="4.5" r="4.5" transform="translate(925 2443)" fill="#b6b8bd"/>
          <circle id="Ellipse_75-3" data-name="Ellipse 75" cx="4.5" cy="4.5" r="4.5" transform="translate(960 2443)" fill="#b6b8bd"/>
          <circle id="Ellipse_76-3" data-name="Ellipse 76" cx="4.5" cy="4.5" r="4.5" transform="translate(994 2443)" fill="#b6b8bd"/>
          <circle id="Ellipse_77-3" data-name="Ellipse 77" cx="4.5" cy="4.5" r="4.5" transform="translate(1029 2443)" fill="#b6b8bd"/>
          <circle id="Ellipse_78-3" data-name="Ellipse 78" cx="4.5" cy="4.5" r="4.5" transform="translate(1063 2443)" fill="#b6b8bd"/>
          <circle id="Ellipse_79-3" data-name="Ellipse 79" cx="4.5" cy="4.5" r="4.5" transform="translate(1098 2443)" fill="#b6b8bd"/>
        </g>
        <g id="Group_1097" data-name="Group 1097" transform="translate(0 125)">
          <circle id="Ellipse_67-4" data-name="Ellipse 67" cx="4.5" cy="4.5" r="4.5" transform="translate(683 2443)" fill="#b6b8bd"/>
          <circle id="Ellipse_68-4" data-name="Ellipse 68" cx="4.5" cy="4.5" r="4.5" transform="translate(718 2443)" fill="#b6b8bd"/>
          <circle id="Ellipse_69-4" data-name="Ellipse 69" cx="4.5" cy="4.5" r="4.5" transform="translate(752 2443)" fill="#b6b8bd"/>
          <circle id="Ellipse_70-4" data-name="Ellipse 70" cx="4.5" cy="4.5" r="4.5" transform="translate(787 2443)" fill="#b6b8bd"/>
          <circle id="Ellipse_71-4" data-name="Ellipse 71" cx="4.5" cy="4.5" r="4.5" transform="translate(821 2443)" fill="#b6b8bd"/>
          <circle id="Ellipse_72-4" data-name="Ellipse 72" cx="4.5" cy="4.5" r="4.5" transform="translate(856 2443)" fill="#b6b8bd"/>
          <circle id="Ellipse_73-4" data-name="Ellipse 73" cx="4.5" cy="4.5" r="4.5" transform="translate(891 2443)" fill="#b6b8bd"/>
          <circle id="Ellipse_74-4" data-name="Ellipse 74" cx="4.5" cy="4.5" r="4.5" transform="translate(925 2443)" fill="#b6b8bd"/>
          <circle id="Ellipse_75-4" data-name="Ellipse 75" cx="4.5" cy="4.5" r="4.5" transform="translate(960 2443)" fill="#b6b8bd"/>
          <circle id="Ellipse_76-4" data-name="Ellipse 76" cx="4.5" cy="4.5" r="4.5" transform="translate(994 2443)" fill="#b6b8bd"/>
          <circle id="Ellipse_77-4" data-name="Ellipse 77" cx="4.5" cy="4.5" r="4.5" transform="translate(1029 2443)" fill="#b6b8bd"/>
          <circle id="Ellipse_78-4" data-name="Ellipse 78" cx="4.5" cy="4.5" r="4.5" transform="translate(1063 2443)" fill="#b6b8bd"/>
          <circle id="Ellipse_79-4" data-name="Ellipse 79" cx="4.5" cy="4.5" r="4.5" transform="translate(1098 2443)" fill="#b6b8bd"/>
        </g>
        <g id="Group_1098" data-name="Group 1098" transform="translate(0 166)">
          <circle id="Ellipse_67-5" data-name="Ellipse 67" cx="4.5" cy="4.5" r="4.5" transform="translate(683 2443)" fill="#b6b8bd"/>
          <circle id="Ellipse_68-5" data-name="Ellipse 68" cx="4.5" cy="4.5" r="4.5" transform="translate(718 2443)" fill="#b6b8bd"/>
          <circle id="Ellipse_69-5" data-name="Ellipse 69" cx="4.5" cy="4.5" r="4.5" transform="translate(752 2443)" fill="#b6b8bd"/>
          <circle id="Ellipse_70-5" data-name="Ellipse 70" cx="4.5" cy="4.5" r="4.5" transform="translate(787 2443)" fill="#b6b8bd"/>
          <circle id="Ellipse_71-5" data-name="Ellipse 71" cx="4.5" cy="4.5" r="4.5" transform="translate(821 2443)" fill="#b6b8bd"/>
          <circle id="Ellipse_72-5" data-name="Ellipse 72" cx="4.5" cy="4.5" r="4.5" transform="translate(856 2443)" fill="#b6b8bd"/>
          <circle id="Ellipse_73-5" data-name="Ellipse 73" cx="4.5" cy="4.5" r="4.5" transform="translate(891 2443)" fill="#b6b8bd"/>
          <circle id="Ellipse_74-5" data-name="Ellipse 74" cx="4.5" cy="4.5" r="4.5" transform="translate(925 2443)" fill="#b6b8bd"/>
          <circle id="Ellipse_75-5" data-name="Ellipse 75" cx="4.5" cy="4.5" r="4.5" transform="translate(960 2443)" fill="#b6b8bd"/>
          <circle id="Ellipse_76-5" data-name="Ellipse 76" cx="4.5" cy="4.5" r="4.5" transform="translate(994 2443)" fill="#b6b8bd"/>
          <circle id="Ellipse_77-5" data-name="Ellipse 77" cx="4.5" cy="4.5" r="4.5" transform="translate(1029 2443)" fill="#b6b8bd"/>
          <circle id="Ellipse_78-5" data-name="Ellipse 78" cx="4.5" cy="4.5" r="4.5" transform="translate(1063 2443)" fill="#b6b8bd"/>
          <circle id="Ellipse_79-5" data-name="Ellipse 79" cx="4.5" cy="4.5" r="4.5" transform="translate(1098 2443)" fill="#b6b8bd"/>
        </g>
        <g id="Group_1099" data-name="Group 1099" transform="translate(0 208)">
          <circle id="Ellipse_67-6" data-name="Ellipse 67" cx="4.5" cy="4.5" r="4.5" transform="translate(683 2443)" fill="#b6b8bd"/>
          <circle id="Ellipse_68-6" data-name="Ellipse 68" cx="4.5" cy="4.5" r="4.5" transform="translate(718 2443)" fill="#b6b8bd"/>
          <circle id="Ellipse_69-6" data-name="Ellipse 69" cx="4.5" cy="4.5" r="4.5" transform="translate(752 2443)" fill="#b6b8bd"/>
          <circle id="Ellipse_70-6" data-name="Ellipse 70" cx="4.5" cy="4.5" r="4.5" transform="translate(787 2443)" fill="#b6b8bd"/>
          <circle id="Ellipse_71-6" data-name="Ellipse 71" cx="4.5" cy="4.5" r="4.5" transform="translate(821 2443)" fill="#b6b8bd"/>
          <circle id="Ellipse_72-6" data-name="Ellipse 72" cx="4.5" cy="4.5" r="4.5" transform="translate(856 2443)" fill="#b6b8bd"/>
          <circle id="Ellipse_73-6" data-name="Ellipse 73" cx="4.5" cy="4.5" r="4.5" transform="translate(891 2443)" fill="#b6b8bd"/>
          <circle id="Ellipse_74-6" data-name="Ellipse 74" cx="4.5" cy="4.5" r="4.5" transform="translate(925 2443)" fill="#b6b8bd"/>
          <circle id="Ellipse_75-6" data-name="Ellipse 75" cx="4.5" cy="4.5" r="4.5" transform="translate(960 2443)" fill="#b6b8bd"/>
          <circle id="Ellipse_76-6" data-name="Ellipse 76" cx="4.5" cy="4.5" r="4.5" transform="translate(994 2443)" fill="#b6b8bd"/>
          <circle id="Ellipse_77-6" data-name="Ellipse 77" cx="4.5" cy="4.5" r="4.5" transform="translate(1029 2443)" fill="#b6b8bd"/>
          <circle id="Ellipse_78-6" data-name="Ellipse 78" cx="4.5" cy="4.5" r="4.5" transform="translate(1063 2443)" fill="#b6b8bd"/>
          <circle id="Ellipse_79-6" data-name="Ellipse 79" cx="4.5" cy="4.5" r="4.5" transform="translate(1098 2443)" fill="#b6b8bd"/>
        </g>
        <g id="Group_1100" data-name="Group 1100" transform="translate(0 249)">
          <circle id="Ellipse_67-7" data-name="Ellipse 67" cx="4.5" cy="4.5" r="4.5" transform="translate(683 2443)" fill="#b6b8bd"/>
          <circle id="Ellipse_68-7" data-name="Ellipse 68" cx="4.5" cy="4.5" r="4.5" transform="translate(718 2443)" fill="#b6b8bd"/>
          <circle id="Ellipse_69-7" data-name="Ellipse 69" cx="4.5" cy="4.5" r="4.5" transform="translate(752 2443)" fill="#b6b8bd"/>
          <circle id="Ellipse_70-7" data-name="Ellipse 70" cx="4.5" cy="4.5" r="4.5" transform="translate(787 2443)" fill="#b6b8bd"/>
          <circle id="Ellipse_71-7" data-name="Ellipse 71" cx="4.5" cy="4.5" r="4.5" transform="translate(821 2443)" fill="#b6b8bd"/>
          <circle id="Ellipse_72-7" data-name="Ellipse 72" cx="4.5" cy="4.5" r="4.5" transform="translate(856 2443)" fill="#b6b8bd"/>
          <circle id="Ellipse_73-7" data-name="Ellipse 73" cx="4.5" cy="4.5" r="4.5" transform="translate(891 2443)" fill="#b6b8bd"/>
          <circle id="Ellipse_74-7" data-name="Ellipse 74" cx="4.5" cy="4.5" r="4.5" transform="translate(925 2443)" fill="#b6b8bd"/>
          <circle id="Ellipse_75-7" data-name="Ellipse 75" cx="4.5" cy="4.5" r="4.5" transform="translate(960 2443)" fill="#b6b8bd"/>
          <circle id="Ellipse_76-7" data-name="Ellipse 76" cx="4.5" cy="4.5" r="4.5" transform="translate(994 2443)" fill="#b6b8bd"/>
          <circle id="Ellipse_77-7" data-name="Ellipse 77" cx="4.5" cy="4.5" r="4.5" transform="translate(1029 2443)" fill="#b6b8bd"/>
          <circle id="Ellipse_78-7" data-name="Ellipse 78" cx="4.5" cy="4.5" r="4.5" transform="translate(1063 2443)" fill="#b6b8bd"/>
          <circle id="Ellipse_79-7" data-name="Ellipse 79" cx="4.5" cy="4.5" r="4.5" transform="translate(1098 2443)" fill="#b6b8bd"/>
        </g>
        <g id="Group_1101" data-name="Group 1101" transform="translate(0 291)">
          <circle id="Ellipse_67-8" data-name="Ellipse 67" cx="4.5" cy="4.5" r="4.5" transform="translate(683 2443)" fill="#b6b8bd"/>
          <circle id="Ellipse_68-8" data-name="Ellipse 68" cx="4.5" cy="4.5" r="4.5" transform="translate(718 2443)" fill="#b6b8bd"/>
          <circle id="Ellipse_69-8" data-name="Ellipse 69" cx="4.5" cy="4.5" r="4.5" transform="translate(752 2443)" fill="#b6b8bd"/>
          <circle id="Ellipse_70-8" data-name="Ellipse 70" cx="4.5" cy="4.5" r="4.5" transform="translate(787 2443)" fill="#b6b8bd"/>
          <circle id="Ellipse_71-8" data-name="Ellipse 71" cx="4.5" cy="4.5" r="4.5" transform="translate(821 2443)" fill="#b6b8bd"/>
          <circle id="Ellipse_72-8" data-name="Ellipse 72" cx="4.5" cy="4.5" r="4.5" transform="translate(856 2443)" fill="#b6b8bd"/>
          <circle id="Ellipse_73-8" data-name="Ellipse 73" cx="4.5" cy="4.5" r="4.5" transform="translate(891 2443)" fill="#b6b8bd"/>
          <circle id="Ellipse_74-8" data-name="Ellipse 74" cx="4.5" cy="4.5" r="4.5" transform="translate(925 2443)" fill="#b6b8bd"/>
          <circle id="Ellipse_75-8" data-name="Ellipse 75" cx="4.5" cy="4.5" r="4.5" transform="translate(960 2443)" fill="#b6b8bd"/>
          <circle id="Ellipse_76-8" data-name="Ellipse 76" cx="4.5" cy="4.5" r="4.5" transform="translate(994 2443)" fill="#b6b8bd"/>
          <circle id="Ellipse_77-8" data-name="Ellipse 77" cx="4.5" cy="4.5" r="4.5" transform="translate(1029 2443)" fill="#b6b8bd"/>
          <circle id="Ellipse_78-8" data-name="Ellipse 78" cx="4.5" cy="4.5" r="4.5" transform="translate(1063 2443)" fill="#b6b8bd"/>
          <circle id="Ellipse_79-8" data-name="Ellipse 79" cx="4.5" cy="4.5" r="4.5" transform="translate(1098 2443)" fill="#b6b8bd"/>
        </g>
        <g id="Group_1102" data-name="Group 1102" transform="translate(0 332)">
          <circle id="Ellipse_67-9" data-name="Ellipse 67" cx="4.5" cy="4.5" r="4.5" transform="translate(683 2443)" fill="#b6b8bd"/>
          <circle id="Ellipse_68-9" data-name="Ellipse 68" cx="4.5" cy="4.5" r="4.5" transform="translate(718 2443)" fill="#b6b8bd"/>
          <circle id="Ellipse_69-9" data-name="Ellipse 69" cx="4.5" cy="4.5" r="4.5" transform="translate(752 2443)" fill="#b6b8bd"/>
          <circle id="Ellipse_70-9" data-name="Ellipse 70" cx="4.5" cy="4.5" r="4.5" transform="translate(787 2443)" fill="#b6b8bd"/>
          <circle id="Ellipse_71-9" data-name="Ellipse 71" cx="4.5" cy="4.5" r="4.5" transform="translate(821 2443)" fill="#b6b8bd"/>
          <circle id="Ellipse_72-9" data-name="Ellipse 72" cx="4.5" cy="4.5" r="4.5" transform="translate(856 2443)" fill="#b6b8bd"/>
          <circle id="Ellipse_73-9" data-name="Ellipse 73" cx="4.5" cy="4.5" r="4.5" transform="translate(891 2443)" fill="#b6b8bd"/>
          <circle id="Ellipse_74-9" data-name="Ellipse 74" cx="4.5" cy="4.5" r="4.5" transform="translate(925 2443)" fill="#b6b8bd"/>
          <circle id="Ellipse_75-9" data-name="Ellipse 75" cx="4.5" cy="4.5" r="4.5" transform="translate(960 2443)" fill="#b6b8bd"/>
          <circle id="Ellipse_76-9" data-name="Ellipse 76" cx="4.5" cy="4.5" r="4.5" transform="translate(994 2443)" fill="#b6b8bd"/>
          <circle id="Ellipse_77-9" data-name="Ellipse 77" cx="4.5" cy="4.5" r="4.5" transform="translate(1029 2443)" fill="#b6b8bd"/>
          <circle id="Ellipse_78-9" data-name="Ellipse 78" cx="4.5" cy="4.5" r="4.5" transform="translate(1063 2443)" fill="#b6b8bd"/>
          <circle id="Ellipse_79-9" data-name="Ellipse 79" cx="4.5" cy="4.5" r="4.5" transform="translate(1098 2443)" fill="#b6b8bd"/>
        </g>
        <g id="Group_1103" data-name="Group 1103" transform="translate(0 374)">
          <circle id="Ellipse_67-10" data-name="Ellipse 67" cx="4.5" cy="4.5" r="4.5" transform="translate(683 2443)" fill="#b6b8bd"/>
          <circle id="Ellipse_68-10" data-name="Ellipse 68" cx="4.5" cy="4.5" r="4.5" transform="translate(718 2443)" fill="#b6b8bd"/>
          <circle id="Ellipse_69-10" data-name="Ellipse 69" cx="4.5" cy="4.5" r="4.5" transform="translate(752 2443)" fill="#b6b8bd"/>
          <circle id="Ellipse_70-10" data-name="Ellipse 70" cx="4.5" cy="4.5" r="4.5" transform="translate(787 2443)" fill="#b6b8bd"/>
          <circle id="Ellipse_71-10" data-name="Ellipse 71" cx="4.5" cy="4.5" r="4.5" transform="translate(821 2443)" fill="#b6b8bd"/>
          <circle id="Ellipse_72-10" data-name="Ellipse 72" cx="4.5" cy="4.5" r="4.5" transform="translate(856 2443)" fill="#b6b8bd"/>
          <circle id="Ellipse_73-10" data-name="Ellipse 73" cx="4.5" cy="4.5" r="4.5" transform="translate(891 2443)" fill="#b6b8bd"/>
          <circle id="Ellipse_74-10" data-name="Ellipse 74" cx="4.5" cy="4.5" r="4.5" transform="translate(925 2443)" fill="#b6b8bd"/>
          <circle id="Ellipse_75-10" data-name="Ellipse 75" cx="4.5" cy="4.5" r="4.5" transform="translate(960 2443)" fill="#b6b8bd"/>
          <circle id="Ellipse_76-10" data-name="Ellipse 76" cx="4.5" cy="4.5" r="4.5" transform="translate(994 2443)" fill="#b6b8bd"/>
          <circle id="Ellipse_77-10" data-name="Ellipse 77" cx="4.5" cy="4.5" r="4.5" transform="translate(1029 2443)" fill="#b6b8bd"/>
          <circle id="Ellipse_78-10" data-name="Ellipse 78" cx="4.5" cy="4.5" r="4.5" transform="translate(1063 2443)" fill="#b6b8bd"/>
          <circle id="Ellipse_79-10" data-name="Ellipse 79" cx="4.5" cy="4.5" r="4.5" transform="translate(1098 2443)" fill="#b6b8bd"/>
        </g>
        <g id="Group_1104" data-name="Group 1104" transform="translate(0 415)">
          <circle id="Ellipse_67-11" data-name="Ellipse 67" cx="4.5" cy="4.5" r="4.5" transform="translate(683 2443)" fill="#b6b8bd"/>
          <circle id="Ellipse_68-11" data-name="Ellipse 68" cx="4.5" cy="4.5" r="4.5" transform="translate(718 2443)" fill="#b6b8bd"/>
          <circle id="Ellipse_69-11" data-name="Ellipse 69" cx="4.5" cy="4.5" r="4.5" transform="translate(752 2443)" fill="#b6b8bd"/>
          <circle id="Ellipse_70-11" data-name="Ellipse 70" cx="4.5" cy="4.5" r="4.5" transform="translate(787 2443)" fill="#b6b8bd"/>
          <circle id="Ellipse_71-11" data-name="Ellipse 71" cx="4.5" cy="4.5" r="4.5" transform="translate(821 2443)" fill="#b6b8bd"/>
          <circle id="Ellipse_72-11" data-name="Ellipse 72" cx="4.5" cy="4.5" r="4.5" transform="translate(856 2443)" fill="#b6b8bd"/>
          <circle id="Ellipse_73-11" data-name="Ellipse 73" cx="4.5" cy="4.5" r="4.5" transform="translate(891 2443)" fill="#b6b8bd"/>
          <circle id="Ellipse_74-11" data-name="Ellipse 74" cx="4.5" cy="4.5" r="4.5" transform="translate(925 2443)" fill="#b6b8bd"/>
          <circle id="Ellipse_75-11" data-name="Ellipse 75" cx="4.5" cy="4.5" r="4.5" transform="translate(960 2443)" fill="#b6b8bd"/>
          <circle id="Ellipse_76-11" data-name="Ellipse 76" cx="4.5" cy="4.5" r="4.5" transform="translate(994 2443)" fill="#b6b8bd"/>
          <circle id="Ellipse_77-11" data-name="Ellipse 77" cx="4.5" cy="4.5" r="4.5" transform="translate(1029 2443)" fill="#b6b8bd"/>
          <circle id="Ellipse_78-11" data-name="Ellipse 78" cx="4.5" cy="4.5" r="4.5" transform="translate(1063 2443)" fill="#b6b8bd"/>
          <circle id="Ellipse_79-11" data-name="Ellipse 79" cx="4.5" cy="4.5" r="4.5" transform="translate(1098 2443)" fill="#b6b8bd"/>
        </g>
      </g>
      <ellipse id="Ellipse_120" data-name="Ellipse 120" cx="302.5" cy="220.5" rx="302.5" ry="220.5" transform="translate(2130.354 -3799.396) rotate(13)" fill="#f4f5fa"/>
      <ellipse id="Ellipse_121" data-name="Ellipse 121" cx="205.5" cy="207.5" rx="205.5" ry="207.5" transform="translate(2063 -2813)" fill="#f4f5fa"/>
      <circle id="Ellipse_122" data-name="Ellipse 122" cx="58.5" cy="58.5" r="58.5" transform="translate(1810 -2881)" fill="#fddfdf"/>
      <circle id="Ellipse_123" data-name="Ellipse 123" cx="61.5" cy="61.5" r="61.5" transform="translate(2474 -3004)" fill="#85a4ff"/>
      <ellipse id="Ellipse_124" data-name="Ellipse 124" cx="356.5" cy="339" rx="356.5" ry="339" transform="translate(635 -4211)" fill="#f4f5fa"/>
      <text id="Sed_ut_perspiciatis_unde_omnis_iste_natus_error_sit_voluptatem_accusantium_doloremque_laudantium_totam_rem_aperiam_eaque_ipsa_quae_ab_illo_inventore_architecto_beatae_vitae_dicta_sunt_explicabo." data-name="Sed ut perspiciatis unde omnis iste natus error sit voluptatem accusantium doloremque laudantium, totam rem aperiam, eaque ipsa quae ab illo inventore  architecto beatae vitae dicta sunt explicabo." transform="translate(3431 -3407)" fill="#7a839e" font-size="16" font-family="Poppins-Light, Poppins" font-weight="300"><tspan x="0" y="17">Sed ut perspiciatis unde omnis iste natus error sit voluptatem accusantium </tspan><tspan x="0" y="45" xml:space="preserve">doloremque laudantium, totam rem aperiam, eaque ipsa quae ab illo inventore  </tspan><tspan x="0" y="73">architecto beatae vitae dicta sunt explicabo.</tspan></text>
      <text id="Build_Your_Body_Shape_Yourself_" data-name="Build Your Body &amp;
Shape Yourself!" transform="translate(3819 -3746)" fill="#181818" font-size="50" font-family="Poppins-Light, Poppins" font-weight="300"><tspan x="0" y="0">Build Your Body &amp;</tspan><tspan font-size="80" font-family="Poppins-Bold, Poppins" font-weight="700"><tspan x="0" y="92">Shape Yourself!</tspan></tspan></text>
      <text id="FB_Fitness" data-name="FB Fitness" transform="translate(1084 -3841)" fill="#181818" font-size="50" font-family="Poppins-Bold, Poppins" font-weight="700"><tspan x="0" y="0">FB Fitness</tspan></text>
      <line id="Line_60" data-name="Line 60" x2="100" transform="translate(950.5 -3282.5)" fill="none" stroke="#f92524" stroke-width="5"/>
      <path id="Path_3763" data-name="Path 3763" d="M180,0h50a5,5,0,0,1,5,5V53a5,5,0,0,1-5,5H180Z" transform="translate(963 -3143)" fill="#e91b1a"/>
      <g id="arrow-long" transform="translate(1159 -3163.916)">
        <path id="Path_3764" data-name="Path 3764" d="M22.687,49.074l-6.844-6.844a1.069,1.069,0,1,0-1.512,1.512l5.019,5.019H1.069a1.069,1.069,0,1,0,0,2.139H19.349L14.33,55.918a1.069,1.069,0,0,0,1.512,1.512l6.844-6.844A1.069,1.069,0,0,0,22.687,49.074Z" fill="#fff"/>
      </g>
      <path id="Path_3765" data-name="Path 3765" d="M2676.17,3199.577s398.786,39.1,709.605-463.3c1.955-1.955,189.619-316.683-322.548-469.161,3.91,0-340.63-83.081-377.772-321.571C2687.41,1943.6,2676.17,3199.577,2676.17,3199.577Z" transform="translate(-2041 -5598.548)" fill="#f92524"/>
      <path id="Path_3896" data-name="Path 3896" d="M100,0" transform="translate(1693.5 -2376.5)" fill="none" stroke="#f92524" stroke-width="5"/>
      <line id="Line_66" data-name="Line 66" x2="1450" transform="translate(950 5280)" fill="none" stroke="#fff" stroke-width="1" opacity="0.2"/>
    </g>
  </g>
</svg>
